<svg width="73" height="16" viewBox="0 0 73 16" fill="none" xmlns="http://www.w3.org/2000/svg">
<path d="M15.8047 1.79688H11.5469L8.22656 10.4395L4.90625 1.79688H0.628906V15H3.42188V5.24414L7.18164 15H9.16406L12.9238 5.24414V15H15.8047V1.79688ZM19.916 4.17969C20.375 4.17969 20.7656 4.02344 21.0781 3.71094C21.3906 3.39844 21.5469 3.00781 21.5469 2.53906C21.5469 2.07031 21.3906 1.67969 21.0781 1.36719C20.7656 1.05469 20.375 0.898438 19.916 0.898438C19.4473 0.898438 19.0566 1.05469 18.7441 1.36719C18.4219 1.67969 18.2656 2.07031 18.2656 2.53906C18.2656 3.00781 18.4219 3.39844 18.7441 3.71094C19.0566 4.02344 19.4473 4.17969 19.916 4.17969ZM18.5684 15H21.2441V5.76172H18.5684V15ZM29.2422 5.51758C27.8457 5.51758 26.8594 6.12305 26.2832 7.34375V5.76172H23.7637V15H26.4395V10.1758C26.4395 9.51172 26.6055 8.98438 26.9375 8.58398C27.2598 8.19336 27.6992 7.99805 28.2461 7.99805C29.1738 7.99805 29.6426 8.53516 29.6426 9.59961V15H32.3281V8.89648C32.3281 7.83203 32.0547 7.00195 31.5176 6.40625C30.9805 5.81055 30.2188 5.51758 29.2422 5.51758ZM36.0488 4.17969C36.5078 4.17969 36.8984 4.02344 37.2109 3.71094C37.5234 3.39844 37.6797 3.00781 37.6797 2.53906C37.6797 2.07031 37.5234 1.67969 37.2109 1.36719C36.8984 1.05469 36.5078 0.898438 36.0488 0.898438C35.5801 0.898438 35.1895 1.05469 34.877 1.36719C34.5547 1.67969 34.3984 2.07031 34.3984 2.53906C34.3984 3.00781 34.5547 3.39844 34.877 3.71094C35.1895 4.02344 35.5801 4.17969 36.0488 4.17969ZM34.7012 15H37.377V5.76172H34.7012V15ZM45.5801 15.2441C47.3672 15.2441 48.7539 14.7852 49.7598 13.877C50.7559 12.9688 51.2539 11.709 51.2539 10.0781V1.79688H48.4609V9.63867C48.4609 10.5469 48.2168 11.2402 47.7285 11.7383C47.2402 12.2363 46.5469 12.4805 45.6387 12.4805C44.7305 12.4805 44.0371 12.2363 43.5391 11.7383C43.041 11.2402 42.7969 10.5469 42.7969 9.63867V1.79688H39.8965V10.0781C39.8965 11.709 40.3945 12.9688 41.3906 13.877C42.3965 14.7852 43.793 15.2441 45.5801 15.2441ZM59.3398 5.51758C57.8262 5.51758 56.8105 6.28906 56.3027 7.82227V5.76172H53.7832V15H56.459V11.2402C56.4688 9.13086 57.3184 8.07617 59.0273 8.07617C59.3887 8.08594 59.6816 8.11523 59.9258 8.18359L60.1602 5.64453C59.9355 5.55664 59.6621 5.51758 59.3398 5.51758ZM64.75 15.2441C65.4238 15.2441 66.0098 15.1367 66.4883 14.9219L66.1562 12.5586C65.873 12.6953 65.5801 12.7637 65.2871 12.7637C64.9551 12.7637 64.7109 12.6758 64.5645 12.5C64.418 12.3242 64.3496 12.0508 64.3496 11.6797V0.996094H61.6738V12.3242C61.6738 14.2676 62.6992 15.2441 64.75 15.2441ZM70.8438 15.2441C71.5176 15.2441 72.1035 15.1367 72.582 14.9219L72.25 12.5586C71.9668 12.6953 71.6738 12.7637 71.3809 12.7637C71.0488 12.7637 70.8047 12.6758 70.6582 12.5C70.5117 12.3242 70.4434 12.0508 70.4434 11.6797V0.996094H67.7676V12.3242C67.7676 14.2676 68.793 15.2441 70.8438 15.2441Z" fill="black"/>
</svg>
